# AST/ASF file generated using VICON BodyLanguage
# -----------------------------------------------
:version 1.10
:name VICON
:units
  mass 1.0
  length 0.45
  angle deg
:documentation
   .ast/.asf automatically generated from VICON data using
   VICON BodyBuilder and BodyLanguage model FoxedUp or BRILLIANT.MOD
:root
   order TX TY TZ RX RY RZ
   axis XYZ
   position 0 0 0  
   orientation 0 0 0 
:bonedata
  begin
     id 1 
     name lhipjoint
     direction 0.650112 -0.723553 0.232005 
     length 2.45805 
     axis 0 0 0  XYZ
  end
  begin
     id 2 
     name lfemur
     direction 0.34202 -0.939693 0  
     length 7.00073  
     axis 0 0 20  XYZ
    dof rx ry rz
    limits (-160.0 20.0)
           (-70.0 70.0)
           (-60.0 70.0)
  end
  begin
     id 3 
     name ltibia
     direction 0.34202 -0.939693 0   
     length 7.8748   
     axis 0 0 20   XYZ
    dof rx
    limits (-10.0 170.0)
  end
  begin
     id 4 
     name lfoot
     direction 0.0542825 -0.14914 0.987325   
     length 1.75978   
     axis -90 7.62852e-016 20   XYZ
    dof rx rz
    limits (-45.0 90.0)
           (-70.0 20.0)
  end
  begin
     id 5 
     name ltoes
     direction 1.53509e-011 -4.21906e-011 1   
     length 0.893912   
     axis -90 7.62852e-016 20   XYZ
    dof rx
    limits (-90.0 20.0)
  end
  begin
     id 6 
     name rhipjoint
     direction -0.637897 -0.733345 0.235145   
     length 2.42522  
     axis 0 0 0  XYZ 
  end
  begin
     id 7 
     name rfemur
     direction -0.34202 -0.939693 0   
     length 7.02549   
     axis 0 0 -20   XYZ
    dof rx ry rz
    limits (-160.0 20.0)
           (-70.0 70.0)
           (-70.0 60.0)
  end
  begin
     id 8 
     name rtibia
     direction -0.34202 -0.939693 0   
     length 7.71512   
     axis 0 0 -20   XYZ
    dof rx
    limits (-10.0 170.0)
 end
 begin
     id 9 
     name rfoot
     direction -0.0822618 -0.226012 0.970645   
     length 1.90014  
     axis -90 -7.62852e-016 -20   XYZ
    dof rx rz
    limits (-45.0 90.0)
           (-20.0 70.0)
  end
  begin
     id 10 
     name rtoes
     direction -1.53542e-011 -4.21872e-011 1   
     length 0.957341   
     axis -90 -7.62852e-016 -20   XYZ
    dof rx
    limits (-90.0 20.0)
  end
  begin
     id 11 
     name lowerback
     direction -0.0022947 0.999774 -0.0211557   
     length 1.89909   
     axis 0 0 0   XYZ
    dof rx ry rz
    limits (-20.0 45.0)
           (-30.0 30.0)
           (-30.0 30.0)
  end
  begin
     id 12 
     name upperback
     direction 0.0107737 0.998635 0.0511027   
     length 1.8853   
     axis 0 0 0   XYZ
    dof rx ry rz
    limits (-20.0 45.0)
           (-30.0 30.0)
           (-30.0 30.0)
  end
  begin
     id 13 
     name thorax
     direction 0.011824 0.998136 0.0598754   
     length 1.88911   
     axis 0 0 0   XYZ
    dof rx ry rz
    limits (-20.0 45.0)
           (-30.0 30.0)
           (-30.0 30.0)
  end
  begin
     id 14 
     name lowerneck
     direction -0.0685355 0.990319 0.120714   
     length 1.91222   
     axis 0 0 0   XYZ
    dof rx ry rz
    limits (-20.0 45.0)
           (-30.0 30.0)
           (-30.0 30.0)
  end
  begin
     id 15 
     name upperneck
     direction 0.0886204 0.955665 -0.280805   
     length 1.92526   
     axis 0 0 0   XYZ
    dof rx ry rz
    limits (-20.0 45.0)
           (-30.0 30.0)
           (-30.0 30.0)
  end
  begin
     id 16
     name head
     direction 0.0233423 0.993502 -0.111393  
     length 1.96056  
     axis 0 0 0   XYZ
    dof rx ry rz
    limits (-20.0 45.0)
           (-30.0 30.0)
           (-30.0 30.0)
  end
  begin
     id 17 
     name lclavicle
     direction 0.941873 0.32922 0.0670041  
     length 3.31705  
     axis 0 0 0   XYZ
    dof ry rz
    limits (-20.0 10.0)
           (0.0 20.0)
  end
  begin
     id 18 
     name lhumerus
     direction 1 -4.4898e-011 3.38707e-028   
     length 5.29277   
     axis 180 -30 -90   XYZ
    dof rx ry rz
    limits (-60.0 90.0)
           (-90.0 90.0)
           (-90.0 90.0)
  end
  begin
     id 19
     name lradius
     direction 1 -4.48952e-011 1.63213e-028   
     length 2.85226   
     axis 180 -30 -90   XYZ
    dof rx
    limits (-10.0 170.0)
  end
  begin
     id 20
     name lwrist
     direction 1 -4.49001e-011 1.27856e-027   
     length 1.42613   
     axis -1.61767e-015 90 90   XYZ
    dof ry
    limits (-180.0 0.0)
 end
  begin
     id 21 
     name lhand
     direction 1 -4.48976e-011 2.55931e-027   
     length 0.602097   
     axis -1.63363e-015 90 90   XYZ
    dof rx rz
    limits (-90.0 90.0)
           (-45.0 45.0)
  end
  begin
     id 22 
     name lfingers
     direction 1 -4.48986e-011 5.11684e-027   
     length 0.485426   
     axis -3.26723e-015 90 90   XYZ
    dof rx
    limits (0.0 90.0)
  end
  begin
     id 23
     name lthumb
     direction 0.707107 -6.34915e-011 0.707107   
     length 0.696978   
     axis -90 45 -2.25915e-014   XYZ
    dof rx rz
    limits (-45.0 45.0)
           (-45.0 45.0)
  end
  begin
     id 24 
     name rclavicle
     direction -0.939974 0.327078 0.0973096   
     length 3.10337  
     axis 0 0 0   XYZ 
    dof ry rz
    limits (-10.0 20.0)
           (-20.0 0.0)
  end
  begin
     id 25 
     name rhumerus
     direction -1 -4.48975e-011 1.83745e-027  
     length 5.13304   
     axis 180 30 90   XYZ
    dof rx ry rz
    limits (-90.0 60.0)
           (-90.0 90.0)
           (-90.0 90.0)
  end
  begin
     id 26 
     name rradius
     direction -1 -4.48977e-011 7.1775e-029   
     length 2.74305   
     axis 180 30 90   XYZ
    dof rx
    limits (-10.0 170.0)
  end
  begin
     id 27 
     name rwrist
     direction -1 -4.48977e-011 1.27963e-027   
     length 1.37152   
     axis -1.61767e-015 -90 -90   XYZ
    dof ry
    limits (-180.0 0.0)
  end
  begin
     id 28
     name rhand
     direction -1 -4.4888e-011 2.56782e-027   
     length 0.767976   
     axis -1.63363e-015 -90 -90   XYZ
    dof rx rz
    limits (-90.0 90.0)
           (-45.0 45.0)
  end
  begin
     id 29
     name rfingers
     direction -1 -4.48947e-011 5.12384e-027   
     length 0.619162   
     axis -3.26723e-015 -90 -90   XYZ
    dof rx
    limits (0.0 90.0)
  end
  begin
     id 30
     name rthumb
     direction -0.707107 -6.34857e-011 0.707107   
     length 0.888997   
     axis -90 -45 2.25915e-014   XYZ
    dof rx rz
    limits (-45.0 45.0)
           (-45.0 45.0)
  end
:hierarchy
  begin
    root lhipjoint rhipjoint lowerback
    lhipjoint lfemur
    lfemur ltibia
    ltibia lfoot
    lfoot ltoes
    rhipjoint rfemur
    rfemur rtibia
    rtibia rfoot
    rfoot rtoes
    lowerback upperback
    upperback thorax
    thorax lowerneck lclavicle rclavicle
    lowerneck upperneck
    upperneck head
    lclavicle lhumerus
    lhumerus lradius
    lradius lwrist
    lwrist lhand lthumb
    lhand lfingers
    rclavicle rhumerus
    rhumerus rradius
    rradius rwrist
    rwrist rhand rthumb
    rhand rfingers
  end

#!OML:ASF F:\VICON\USERDATA\INSTALL\rory3\rory3.ASF
:FULLY-SPECIFIED
:DEGREES
214
root -0.0518393 16.5054 0.0610273 -9.39234 7.01274 -3.04556
lowerback -0.687146 1.23516 -2.85093
upperback 6.01972 1.73796 0.963331
thorax 6.533 0.681812 2.71049
lowerneck -13.4359 -12.5546 -17.2426
upperneck 26.4538 -17.6599 13.0482
head 14.0864 -8.08835 4.83834
rclavicle 7.25564e-015 -7.95139e-015
rhumerus 24.9785 39.1 8.44093
rradius 138.176
rwrist -35.564
rhand 25.7973 16.5548
rfingers 7.12502
rthumb 49.8921 -4.72437
lclavicle 7.25564e-015 -7.95139e-015
lhumerus 24.5382 -38.8321 -9.59421
lradius 135.824
lwrist 53.2667
lhand 32.3966 24.5341
lfingers 7.12502
lthumb 55.8478 42.0412
rfemur 1.30997 -3.27309 21.6483
rtibia 35.6284
rfoot -28.0263 -9.13993
rtoes -19.0399
lfemur -4.39196 -7.47468 -15.9254
ltibia 41.77
lfoot -26.5968 0.693659
ltoes -22.676
215
root -0.0473068 16.5353 0.0592001 -8.88898 6.92273 -2.97043
lowerback -0.418149 1.26195 -2.62977
upperback 5.37633 1.7574 0.775183
thorax 5.70258 0.73046 2.37058
lowerneck -13.4703 -12.4935 -17.0334
upperneck 26.6295 -17.672 13.1041
head 14.1548 -8.06551 4.83052
rclavicle 5.73991e-015 -3.57812e-015
rhumerus 26.9269 41.394 11.7391
rradius 137.943
rwrist -34.9091
rhand 25.9587 17.657
rfingers 7.12502
rthumb 50.0399 -3.54478
lclavicle 5.73991e-015 -3.57812e-015
lhumerus 26.073 -40.1538 -13.0664
lradius 135.939
lwrist 52.1923
lhand 32.6048 24.5891
lfingers 7.12502
lthumb 56.0323 41.9537
rfemur 1.02794 -2.87547 21.6978
rtibia 35.0821
rfoot -27.6691 -9.36769
rtoes -19.3876
lfemur -4.6366 -7.56886 -16.0044
ltibia 41.228
lfoot -26.2463 0.820934
ltoes -22.1683
216
root -0.0416509 16.5639 0.0573597 -8.45714 6.87481 -2.83236
lowerback -0.23372 1.32729 -2.50642
upperback 4.91992 1.83411 0.664192
thorax 5.11716 0.791457 2.17564
lowerneck -13.6518 -12.5304 -17.0235
upperneck 26.6535 -17.7569 13.2414
head 14.2374 -8.0768 4.85746
rclavicle -3.81418e-015 2.78299e-015
rhumerus 28.8924 43.0973 15.1552
rradius 137.864
rwrist -34.4203
rhand 25.5052 17.3439
rfingers 7.12502
rthumb 49.6246 -4.07375
lclavicle -3.81418e-015 2.78299e-015
lhumerus 27.5726 -41.1578 -16.1249
lradius 136.102
lwrist 51.2275
lhand 32.3197 24.5926
lfingers 7.12502
lthumb 55.7795 42.152
rfemur 0.814383 -2.52723 21.6409
rtibia 34.5883
rfoot -27.3964 -9.56002
rtoes -19.3689
lfemur -4.81613 -7.69154 -16.1752
ltibia 40.6964
lfoot -25.9226 0.954503
ltoes -21.7134
217
root -0.0364117 16.5909 0.0539816 -8.01718 6.79279 -2.71876
lowerback -0.291946 1.42091 -2.42951
upperback 4.64481 1.95407 0.676541
thorax 4.85638 0.860805 2.14669
lowerneck -13.9259 -12.6284 -17.2156
upperneck 26.5408 -17.8576 13.431
head 14.3146 -8.10397 4.92399
rclavicle 2.14936e-015 1.39149e-014
rhumerus 30.8064 44.0043 18.6725
rradius 137.985
rwrist -34.4882
rhand 25.5213 16.9264
rfingers 7.12502
rthumb 49.6393 -4.48371
lclavicle 2.14936e-015 1.39149e-014
lhumerus 29.0528 -41.7409 -18.7067
lradius 136.068
lwrist 50.4324
lhand 31.9854 24.4517
lfingers 7.12502
lthumb 55.4825 42.2355
rfemur 0.542449 -2.16159 21.6117
rtibia 34.1567
rfoot -27.0821 -9.77177
rtoes -19.4711
lfemur -5.01361 -7.75759 -16.2992
ltibia 40.1828
lfoot -25.6525 1.12211
ltoes -21.6692
218
root -0.0301245 16.616 0.0488994 -7.55144 6.70759 -2.54406
lowerback -0.311425 1.39553 -2.42789
upperback 4.27832 1.91783 0.610211
thorax 4.48767 0.853245 2.069
lowerneck -14.0362 -12.5444 -17.1045
upperneck 26.3977 -17.7502 13.5044
head 14.2505 -8.03546 4.95259
rclavicle 4.41053e-015 9.14409e-015
rhumerus 32.9823 44.9097 21.8017
rradius 137.955
rwrist -34.5776
rhand 25.8049 17.4995
rfingers 7.12502
rthumb 49.8991 -3.77604
lclavicle 4.41053e-015 9.14409e-015
lhumerus 30.3022 -42.4032 -21.194
lradius 135.974
lwrist 49.8045
lhand 31.8827 24.3212
lfingers 7.12502
lthumb 55.3911 42.1731
rfemur 0.218607 -1.80771 21.5025
rtibia 33.7817
rfoot -26.8019 -9.90343
rtoes -19.3988
lfemur -5.2412 -7.8102 -16.4851
ltibia 39.6933
lfoot -25.4355 1.32241
ltoes -21.7856
219
root -0.0222383 16.6377 0.0410307 -7.18187 6.63297 -2.40052
lowerback -0.157387 1.25089 -2.40473
upperback 3.89988 1.71799 0.507427
thorax 4.01932 0.766905 1.93146
lowerneck -14.2141 -12.3365 -16.7879
upperneck 26.2826 -17.4895 13.5248
head 14.1522 -7.88438 4.96068
rclavicle 7.53518e-015 1.66979e-014
rhumerus 35.434 45.7319 24.5742
rradius 137.763
rwrist -34.6774
rhand 26.0934 18.0533
rfingers 7.12502
rthumb 50.1631 -3.08343
lclavicle 7.53518e-015 1.66979e-014
lhumerus 31.0912 -43.1689 -23.4714
lradius 135.954
lwrist 49.3976
lhand 31.8804 24.0339
lfingers 7.12502
lthumb 55.3891 41.8873
rfemur -0.0364681 -1.52391 21.3934
rtibia 33.4652
rfoot -26.5657 -9.9582
rtoes -19.1313
lfemur -5.42749 -7.8644 -16.647
ltibia 39.2615
lfoot -25.2191 1.37203
ltoes -21.2567
220
root -0.0155268 16.6558 0.033349 -6.86375 6.54419 -2.3041
lowerback -0.0805113 1.15827 -2.30066
upperback 3.67077 1.58911 0.428176
thorax 3.7484 0.71328 1.78167
lowerneck -14.64 -12.2402 -16.6055
upperneck 26.2131 -17.3642 13.6535
head 14.1841 -7.77822 4.99186
rclavicle 1.20265e-014 -3.97569e-016
rhumerus 37.4314 46.1031 26.9581
rradius 137.643
rwrist -34.8776
rhand 26.1219 18.2971
rfingers 7.12502
rthumb 50.1891 -2.82579
lclavicle 1.20265e-014 -3.97569e-016
lhumerus 31.7828 -43.6787 -25.4997
lradius 135.965
lwrist 49.2223
lhand 31.813 23.7392
lfingers 7.12502
lthumb 55.3291 41.6371
rfemur -0.273204 -1.24944 21.3346
rtibia 33.2142
rfoot -26.3651 -10.0998
rtoes -19.3456
lfemur -5.59585 -7.88606 -16.7498
ltibia 38.9026
lfoot -24.9949 1.35449
ltoes -20.4793
221
root -0.0111842 16.6702 0.023339 -6.58244 6.44698 -2.24685
lowerback -0.0240065 1.12542 -2.19288
upperback 3.50352 1.5402 0.396595
thorax 3.54832 0.696803 1.68344
lowerneck -15.0428 -12.2152 -16.4779
upperneck 26.0784 -17.3355 13.8138
head 14.2122 -7.71657 5.02154
rclavicle -6.95125e-015 1.15295e-014
rhumerus 38.993 46.2337 29.0368
rradius 137.714
rwrist -35.5335
rhand 26.0674 18.3589
rfingers 7.12502
rthumb 50.1393 -2.79043
lclavicle -6.95125e-015 1.15295e-014
lhumerus 32.4848 -44.0491 -27.3024
lradius 136.09
lwrist 49.0317
lhand 31.663 23.6764
lfingers 7.12502
lthumb 55.1955 41.6727
rfemur -0.524651 -0.934687 21.3333
rtibia 33.0174
rfoot -26.2342 -10.2141
rtoes -19.4315
lfemur -5.75869 -7.86757 -16.7968
ltibia 38.6191
lfoot -24.8324 1.4244
ltoes -20.297
222
root -0.00607607 16.6808 0.0101932 -6.32803 6.33876 -2.19002
lowerback 0.0631574 1.12522 -2.08482
upperback 3.33947 1.53333 0.40919
thorax 3.3314 0.700416 1.63123
lowerneck -15.2393 -12.1962 -16.4664
upperneck 25.8124 -17.3066 14.0134
head 14.1576 -7.67388 5.09095
rclavicle -5.34234e-015 7.95139e-015
rhumerus 40.3478 46.4064 30.9801
rradius 138.082
rwrist -36.6335
rhand 25.3892 17.1031
rfingers 7.12502
rthumb 49.5183 -4.36898
lclavicle -5.34234e-015 7.95139e-015
lhumerus 33.1987 -44.3237 -28.8283
lradius 136.268
lwrist 48.9718
lhand 31.5072 23.7449
lfingers 7.12502
lthumb 55.0566 41.8425
rfemur -0.77347 -0.644743 21.32
rtibia 32.8658
rfoot -26.0632 -10.3632
rtoes -19.6539
lfemur -5.93889 -7.88467 -16.856
ltibia 38.4066
lfoot -24.7509 1.65343
ltoes -20.6027
223
root -0.000593281 16.6909 -0.00428508 -6.10514 6.23051 -2.13924
lowerback 0.159173 1.18391 -1.88191
upperback 3.21092 1.60535 0.382785
thorax 3.14672 0.745629 1.48805
lowerneck -15.4238 -12.2366 -16.4254
upperneck 25.5716 -17.3683 14.1783
head 14.1218 -7.67119 5.12152
rclavicle -2.57613e-014 -1.07344e-014
rhumerus 41.1245 46.5454 32.358
rradius 138.497
rwrist -37.2316
rhand 24.6688 16.2339
rfingers 7.12502
rthumb 48.8569 -5.56894
lclavicle -2.57613e-014 -1.07344e-014
lhumerus 34.0412 -44.4098 -30.1518
lradius 136.404
lwrist 49.1307
lhand 31.4737 23.7936
lfingers 7.12502
lthumb 55.0268 41.9129
rfemur -1.01653 -0.41848 21.2953
rtibia 32.7632
rfoot -25.8788 -10.5005
rtoes -19.8403
lfemur -6.13925 -7.9006 -16.9117
ltibia 38.2447
lfoot -24.6549 1.85681
ltoes -20.8936
224
root 0.00649694 16.699 -0.0188 -5.89497 6.14838 -2.11352
lowerback 0.193712 1.19043 -1.67154
upperback 3.15142 1.61028 0.345962
thorax 3.07178 0.755498 1.33084
lowerneck -15.6734 -12.2545 -16.3566
upperneck 25.2552 -17.4193 14.4549
head 14.0771 -7.64696 5.19078
rclavicle -2.56122e-014 -1.15295e-014
rhumerus 41.6843 46.3578 33.0616
rradius 138.71
rwrist -37.4231
rhand 24.6479 16.1345
rfingers 7.12502
rthumb 48.8377 -5.67786
lclavicle -2.56122e-014 -1.15295e-014
lhumerus 34.6021 -44.4317 -31.1851
lradius 136.54
lwrist 49.3034
lhand 31.4595 23.7363
lfingers 7.12502
lthumb 55.0141 41.8647
rfemur -1.26148 -0.234108 21.277
rtibia 32.6927
rfoot -25.7543 -10.5644
rtoes -20.0535
lfemur -6.35328 -7.87093 -16.9289
ltibia 38.1254
lfoot -24.5364 1.67092
ltoes -19.8511
225
root 0.0135279 16.704 -0.0328028 -5.72648 6.05671 -2.06553
lowerback 0.273668 1.16211 -1.51973
upperback 3.11118 1.5696 0.295482
thorax 2.99162 0.740938 1.19063
lowerneck -15.8743 -12.2419 -16.2297
upperneck 24.817 -17.4453 14.7823
head 13.966 -7.60614 5.27526
rclavicle -7.68427e-015 7.95139e-015
rhumerus 42.0955 45.9619 33.2678
rradius 138.858
rwrist -37.6491
rhand 24.2319 15.8488
rfingers 7.12502
rthumb 48.455 -6.14891
lclavicle -7.68427e-015 7.95139e-015
lhumerus 34.9241 -44.449 -31.9642
lradius 136.741
lwrist 49.4271
lhand 31.3877 23.8109
lfingers 7.12502
lthumb 54.95 41.9857
rfemur -1.47628 -0.0246907 21.2341
rtibia 32.6637
rfoot -25.6752 -10.6495
rtoes -20.1379
lfemur -6.51155 -7.78494 -16.9767
ltibia 38.0376
lfoot -24.4633 1.61646
ltoes -19.4726
226
root 0.0206778 16.7074 -0.0469304 -5.62978 5.96132 -2.0798
lowerback 0.432281 1.15582 -1.28394
upperback 3.07005 1.55614 0.25577
thorax 2.86705 0.742183 1.01335
lowerneck -16.0063 -12.2278 -16.0638
upperneck 24.3729 -17.4844 15.099
head 13.8361 -7.57323 5.34837
rclavicle -1.14612e-014 -2.38542e-015
rhumerus 42.1332 45.5374 33.0068
rradius 139.102
rwrist -37.8195
rhand 24.5506 16.2698
rfingers 7.12502
rthumb 48.7482 -5.58621
lclavicle -1.14612e-014 -2.38542e-015
lhumerus 35.2644 -44.4415 -32.5273
lradius 137.008
lwrist 49.5171
lhand 31.0739 23.9161
lfingers 7.12502
lthumb 54.6697 42.291
rfemur -1.64193 0.145557 21.2472
rtibia 32.681
rfoot -25.6388 -10.7335
rtoes -20.3186
lfemur -6.62263 -7.68538 -16.9583
ltibia 37.9892
lfoot -24.4083 1.64525
ltoes -19.5292
227
root 0.0266602 16.7099 -0.0655407 -5.55916 5.89458 -2.01251
lowerback 0.587438 1.12283 -1.22534
upperback 3.10581 1.50969 0.248122
thorax 2.81941 0.720831 0.968834
lowerneck -16.1363 -12.2033 -15.951
upperneck 23.8618 -17.5008 15.4832
head 13.6898 -7.53015 5.45985
rclavicle 1.57723e-014 4.77083e-015
rhumerus 41.911 44.6796 32.2695
rradius 139.398
rwrist -38.0209
rhand 26.2257 16.9687
rfingers 7.12502
rthumb 50.2841 -4.1036
lclavicle 1.57723e-014 4.77083e-015
lhumerus 35.2767 -44.4054 -32.603
lradius 137.326
lwrist 49.5327
lhand 30.7823 23.9802
lfingers 7.12502
lthumb 54.4089 42.538
rfemur -1.82655 0.255053 21.1567
rtibia 32.7639
rfoot -25.6159 -10.6742
rtoes -20.1941
lfemur -6.75225 -7.56922 -17.0205
ltibia 37.9747
lfoot -24.3357 1.629
ltoes -19.6602
